<?xml version="1.0" encoding="UTF-8" standalone="no"?>
<!DOCTYPE svg PUBLIC "-//W3C//DTD SVG 1.1//EN"
 "http://www.w3.org/Graphics/SVG/1.1/DTD/svg11.dtd">
<!-- Generated by graphviz version 14.1.2 (0)
 -->
<!-- Title: schema Pages: 1 -->
<svg width="931pt" height="448pt"
 viewBox="0.00 0.00 931.00 448.00" xmlns="http://www.w3.org/2000/svg" xmlns:xlink="http://www.w3.org/1999/xlink">
<g id="graph0" class="graph" transform="scale(1 1) rotate(0) translate(4 443.72)">
<title>schema</title>
<!-- notes -->
<g id="node1" class="node">
<title>notes</title>
<ellipse fill="none" stroke="black" cx="115.44" cy="-138.59" rx="115.44" ry="138.59"/>
<polygon fill="#ddf4ff" stroke="none" points="41.81,-209.09 41.81,-232.59 189.06,-232.59 189.06,-209.09 41.81,-209.09"/>
<polygon fill="none" stroke="black" points="41.81,-209.09 41.81,-232.59 189.06,-232.59 189.06,-209.09 41.81,-209.09"/>
<text xml:space="preserve" text-anchor="start" x="98.19" y="-218.14" font-family="Helvetica,sans-Serif" font-weight="bold" font-size="11.00">notes</text>
<polygon fill="none" stroke="black" points="41.81,-185.59 41.81,-209.09 189.06,-209.09 189.06,-185.59 41.81,-185.59"/>
<text xml:space="preserve" text-anchor="start" x="46.81" y="-193.64" font-family="Helvetica,sans-Serif" font-size="11.00">id INTEGER PRIMARY KEY</text>
<polygon fill="none" stroke="black" points="41.81,-162.09 41.81,-185.59 189.06,-185.59 189.06,-162.09 41.81,-162.09"/>
<text xml:space="preserve" text-anchor="start" x="46.81" y="-170.14" font-family="Helvetica,sans-Serif" font-size="11.00">title TEXT NOT NULL</text>
<polygon fill="none" stroke="black" points="41.81,-138.59 41.81,-162.09 189.06,-162.09 189.06,-138.59 41.81,-138.59"/>
<text xml:space="preserve" text-anchor="start" x="46.81" y="-146.64" font-family="Helvetica,sans-Serif" font-size="11.00">content_md TEXT</text>
<polygon fill="none" stroke="black" points="41.81,-115.09 41.81,-138.59 189.06,-138.59 189.06,-115.09 41.81,-115.09"/>
<text xml:space="preserve" text-anchor="start" x="46.81" y="-123.14" font-family="Helvetica,sans-Serif" font-size="11.00">created_at DATETIME</text>
<polygon fill="none" stroke="black" points="41.81,-91.59 41.81,-115.09 189.06,-115.09 189.06,-91.59 41.81,-91.59"/>
<text xml:space="preserve" text-anchor="start" x="46.81" y="-99.64" font-family="Helvetica,sans-Serif" font-size="11.00">updated_at DATETIME</text>
<polygon fill="none" stroke="black" points="41.81,-68.09 41.81,-91.59 189.06,-91.59 189.06,-68.09 41.81,-68.09"/>
<text xml:space="preserve" text-anchor="start" x="46.81" y="-76.14" font-family="Helvetica,sans-Serif" font-size="11.00">pinned INT</text>
<polygon fill="none" stroke="black" points="41.81,-44.59 41.81,-68.09 189.06,-68.09 189.06,-44.59 41.81,-44.59"/>
<text xml:space="preserve" text-anchor="start" x="46.81" y="-52.64" font-family="Helvetica,sans-Serif" font-size="11.00">archived INT</text>
</g>
<!-- note_tag -->
<g id="node2" class="node">
<title>note_tag</title>
<ellipse fill="none" stroke="black" cx="497.71" cy="-282.59" rx="135.59" ry="72.12"/>
<polygon fill="#e6d3ff" stroke="none" points="409.83,-306.09 409.83,-329.59 585.58,-329.59 585.58,-306.09 409.83,-306.09"/>
<polygon fill="none" stroke="black" points="409.83,-306.09 409.83,-329.59 585.58,-329.59 585.58,-306.09 409.83,-306.09"/>
<text xml:space="preserve" text-anchor="start" x="426.46" y="-315.14" font-family="Helvetica,sans-Serif" font-weight="bold" font-size="11.00">note_tag (quan he N&#45;N)</text>
<polygon fill="none" stroke="black" points="409.83,-282.59 409.83,-306.09 585.58,-306.09 585.58,-282.59 409.83,-282.59"/>
<text xml:space="preserve" text-anchor="start" x="414.83" y="-290.64" font-family="Helvetica,sans-Serif" font-size="11.00">note_id INT, FOREIGN KEY</text>
<polygon fill="none" stroke="black" points="409.83,-259.09 409.83,-282.59 585.58,-282.59 585.58,-259.09 409.83,-259.09"/>
<text xml:space="preserve" text-anchor="start" x="414.83" y="-267.14" font-family="Helvetica,sans-Serif" font-size="11.00">tag_id INT, FOREIGN KEY</text>
<polygon fill="none" stroke="black" points="409.83,-235.59 409.83,-259.09 585.58,-259.09 585.58,-235.59 409.83,-235.59"/>
<text xml:space="preserve" text-anchor="start" x="414.83" y="-243.64" font-family="Helvetica,sans-Serif" font-size="11.00">PRIMARY KEY (note_id, tag_id)</text>
</g>
<!-- notes&#45;&gt;note_tag -->
<g id="edge1" class="edge">
<title>notes&#45;&gt;note_tag</title>
<path fill="none" stroke="#8b949e" d="M225.92,-180.05C272.93,-197.85 328.02,-218.72 376.2,-236.96"/>
<polygon fill="#8b949e" stroke="#8b949e" points="374.68,-240.13 385.27,-240.39 377.16,-233.58 374.68,-240.13"/>
<text xml:space="preserve" text-anchor="middle" x="296.5" y="-226.74" font-family="Helvetica,sans-Serif" font-size="10.00" fill="#8250df">1 &#45; N</text>
</g>
<!-- notes_fts -->
<g id="node5" class="node">
<title>notes_fts</title>
<ellipse fill="none" stroke="black" stroke-dasharray="5,2" cx="497.71" cy="-120.59" rx="121.27" ry="72.12"/>
<polygon fill="#ffe0d1" stroke="none" points="419.96,-144.09 419.96,-167.59 575.46,-167.59 575.46,-144.09 419.96,-144.09"/>
<polygon fill="none" stroke="black" points="419.96,-144.09 419.96,-167.59 575.46,-167.59 575.46,-144.09 419.96,-144.09"/>
<text xml:space="preserve" text-anchor="start" x="424.96" y="-153.14" font-family="Helvetica,sans-Serif" font-weight="bold" font-size="11.00">notes_fts (FTS5 virtual)</text>
<polygon fill="none" stroke="black" points="419.96,-120.59 419.96,-144.09 575.46,-144.09 575.46,-120.59 419.96,-120.59"/>
<text xml:space="preserve" text-anchor="start" x="424.96" y="-128.64" font-family="Helvetica,sans-Serif" font-size="11.00">title</text>
<polygon fill="none" stroke="black" points="419.96,-97.09 419.96,-120.59 575.46,-120.59 575.46,-97.09 419.96,-97.09"/>
<text xml:space="preserve" text-anchor="start" x="424.96" y="-105.14" font-family="Helvetica,sans-Serif" font-size="11.00">content_md</text>
<polygon fill="none" stroke="black" points="419.96,-73.59 419.96,-97.09 575.46,-97.09 575.46,-73.59 419.96,-73.59"/>
<text xml:space="preserve" text-anchor="start" x="424.96" y="-81.64" font-family="Helvetica,sans-Serif" font-size="11.00">content=&#39;notes&#39;</text>
</g>
<!-- notes&#45;&gt;notes_fts -->
<g id="edge3" class="edge">
<title>notes&#45;&gt;notes_fts</title>
<path fill="none" stroke="#8b949e" stroke-dasharray="5,2" d="M231.05,-133.17C276.97,-130.99 329.91,-128.49 376.39,-126.29"/>
<text xml:space="preserve" text-anchor="middle" x="296.5" y="-135.51" font-family="Helvetica,sans-Serif" font-size="10.00">dong bo qua trigger</text>
</g>
<!-- tags -->
<g id="node3" class="node">
<title>tags</title>
<ellipse fill="none" stroke="black" cx="807.98" cy="-282.59" rx="115.44" ry="72.12"/>
<polygon fill="#d3ffd3" stroke="none" points="734.36,-306.09 734.36,-329.59 881.61,-329.59 881.61,-306.09 734.36,-306.09"/>
<polygon fill="none" stroke="black" points="734.36,-306.09 734.36,-329.59 881.61,-329.59 881.61,-306.09 734.36,-306.09"/>
<text xml:space="preserve" text-anchor="start" x="794.48" y="-315.14" font-family="Helvetica,sans-Serif" font-weight="bold" font-size="11.00">tags</text>
<polygon fill="none" stroke="black" points="734.36,-282.59 734.36,-306.09 881.61,-306.09 881.61,-282.59 734.36,-282.59"/>
<text xml:space="preserve" text-anchor="start" x="739.36" y="-290.64" font-family="Helvetica,sans-Serif" font-size="11.00">id INTEGER PRIMARY KEY</text>
<polygon fill="none" stroke="black" points="734.36,-259.09 734.36,-282.59 881.61,-282.59 881.61,-259.09 734.36,-259.09"/>
<text xml:space="preserve" text-anchor="start" x="739.36" y="-267.14" font-family="Helvetica,sans-Serif" font-size="11.00">name TEXT UNIQUE</text>
<polygon fill="none" stroke="black" points="734.36,-235.59 734.36,-259.09 881.61,-259.09 881.61,-235.59 734.36,-235.59"/>
<text xml:space="preserve" text-anchor="start" x="739.36" y="-243.64" font-family="Helvetica,sans-Serif" font-size="11.00">color TEXT</text>
</g>
<!-- note_tag&#45;&gt;tags -->
<g id="edge2" class="edge">
<title>note_tag&#45;&gt;tags</title>
<path fill="none" stroke="#8b949e" d="M633.47,-282.59C649.25,-282.59 665.3,-282.59 680.95,-282.59"/>
<polygon fill="#8b949e" stroke="#8b949e" points="680.75,-286.09 690.75,-282.59 680.75,-279.09 680.75,-286.09"/>
<text xml:space="preserve" text-anchor="middle" x="662.92" y="-285.84" font-family="Helvetica,sans-Serif" font-size="10.00" fill="#8250df">N &#45; 1</text>
</g>
<!-- settings -->
<g id="node4" class="node">
<title>settings</title>
<ellipse fill="none" stroke="black" cx="115.44" cy="-367.59" rx="115.44" ry="72.12"/>
<polygon fill="#fff0c9" stroke="none" points="41.81,-391.09 41.81,-414.59 189.06,-414.59 189.06,-391.09 41.81,-391.09"/>
<polygon fill="none" stroke="black" points="41.81,-391.09 41.81,-414.59 189.06,-414.59 189.06,-391.09 41.81,-391.09"/>
<text xml:space="preserve" text-anchor="start" x="90.31" y="-400.14" font-family="Helvetica,sans-Serif" font-weight="bold" font-size="11.00">settings</text>
<polygon fill="none" stroke="black" points="41.81,-367.59 41.81,-391.09 189.06,-391.09 189.06,-367.59 41.81,-367.59"/>
<text xml:space="preserve" text-anchor="start" x="46.81" y="-375.64" font-family="Helvetica,sans-Serif" font-size="11.00">key TEXT PRIMARY KEY</text>
<polygon fill="none" stroke="black" points="41.81,-344.09 41.81,-367.59 189.06,-367.59 189.06,-344.09 41.81,-344.09"/>
<text xml:space="preserve" text-anchor="start" x="46.81" y="-352.14" font-family="Helvetica,sans-Serif" font-size="11.00">value TEXT</text>
<polygon fill="none" stroke="black" points="41.81,-320.59 41.81,-344.09 189.06,-344.09 189.06,-320.59 41.81,-320.59"/>
<text xml:space="preserve" text-anchor="start" x="46.81" y="-328.64" font-family="Helvetica,sans-Serif" font-size="11.00">vi du: theme, sync_scroll</text>
</g>
</g>
</svg>
